<?xml version="1.0" standalone="no"?>
<!DOCTYPE svg PUBLIC "-//W3C//DTD SVG 20010904//EN"
 "http://www.w3.org/TR/2001/REC-SVG-20010904/DTD/svg10.dtd">
<svg version="1.0" xmlns="http://www.w3.org/2000/svg"
 width="635.000000pt" height="635.000000pt" viewBox="0 0 635.000000 635.000000"
 preserveAspectRatio="xMidYMid meet">
<metadata>
Created by potrace 1.14, written by Peter Selinger 2001-2017
</metadata>
<g transform="translate(0.000000,635.000000) scale(0.100000,-0.100000)"
fill="#000000" stroke="none">
<path d="M2950 6344 c-172 -14 -278 -28 -365 -45 -815 -163 -1492 -589 -1974
-1240 -132 -178 -328 -532 -366 -659 -4 -14 -11 -29 -15 -35 -12 -14 -94 -263
-124 -375 -35 -133 -72 -325 -87 -455 -14 -119 -18 -525 -7 -615 31 -242 43
-313 74 -440 49 -197 75 -278 166 -505 66 -163 202 -416 294 -548 19 -26 34
-49 34 -52 0 -9 156 -204 243 -304 96 -110 296 -297 369 -347 24 -16 90 -63
148 -105 364 -263 771 -445 1215 -544 291 -64 719 -81 1030 -40 722 95 1369
416 1872 926 241 245 402 472 557 784 47 94 97 202 111 240 82 216 145 445
150 540 4 69 9 94 30 156 50 140 59 664 15 894 -5 28 -16 95 -26 150 -74 450
-301 971 -587 1350 -335 443 -819 818 -1332 1030 -103 43 -339 125 -359 125
-7 0 -40 9 -73 19 -71 23 -237 56 -388 77 -104 14 -504 27 -605 18z"/>
</g>
</svg>
